<svg color="#FFFFFF" fill="none" height="40" viewBox="0 0 138 40" width="138" xmlns="http://www.w3.org/2000/svg"><path d="M42.6627 20.2351C42.6627 17.9448 43.5139 15.9859 44.9647 14.602C46.4154 13.2181 48.4707 12.4043 50.879 12.4043C52.354 12.4043 53.6791 12.7162 54.7817 13.3155C55.8843 13.9149 56.7644 14.8018 57.3544 15.9567L55.9858 16.7607L54.6172 17.5647C53.4276 15.6204 51.2756 15.0844 49.4428 15.6399C47.6099 16.1954 46.1059 17.8327 46.2172 20.2351C46.1156 22.6374 47.6099 24.2747 49.4331 24.8302C51.2562 25.3857 53.4034 24.8497 54.6172 22.9054L55.9858 23.7095L57.3544 24.5135C55.5167 27.8417 51.7543 28.7042 48.4949 27.7686C45.2355 26.833 42.479 24.0993 42.6627 20.2351V20.2351Z" fill="currentColor"></path><path d="M57.5334 20.2353C57.5334 17.945 58.3846 15.9861 59.816 14.6022C61.2475 13.2183 63.2689 12.4045 65.5998 12.4045C70.9871 12.3704 73.671 16.3077 73.671 20.2402C73.671 24.1726 70.9726 28.1148 65.5998 28.0856C63.2689 28.0709 61.2475 27.2523 59.816 25.8635C58.3846 24.4747 57.5334 22.5207 57.5334 20.2304V20.2353ZM70.1166 20.2353C70.165 17.063 67.8921 15.4647 65.6143 15.455C63.3366 15.4452 61.0637 17.0338 61.1121 20.2353C61.0685 23.4271 63.3366 25.0108 65.6047 25.0059C67.8727 25.001 70.1456 23.4027 70.1118 20.2353H70.1166Z" fill="currentColor"></path><path d="M90.655 19.1143V27.8807H87.1006V19.5675C87.1006 18.2031 86.7718 17.1944 86.1528 16.5268C85.5338 15.8592 84.6343 15.5327 83.4881 15.5327C82.226 15.5327 81.162 15.9177 80.4173 16.6876C79.6726 17.4575 79.2422 18.6124 79.2422 20.1425V27.8807H75.6877V12.5895H79.0584V14.563C79.6436 13.8662 80.398 13.3253 81.283 12.9647C82.1679 12.6041 83.1835 12.4092 84.2958 12.4092C86.1189 12.4092 87.7051 12.9306 88.8367 14.0319C89.9683 15.1331 90.6454 16.8094 90.6454 19.1143H90.655Z" fill="currentColor"></path><path d="M108.084 21.3608H96.1921C96.4484 23.3441 98.0878 24.5525 99.969 24.9131C101.85 25.2737 103.983 24.7816 105.226 23.3636L106.174 24.4697L107.121 25.5759C106.444 26.3945 105.569 27.0182 104.539 27.4324C103.509 27.8466 102.319 28.061 101.009 28.061C98.465 28.061 96.3711 27.2327 94.9154 25.839C93.4598 24.4453 92.6377 22.4816 92.6377 20.2059C92.7151 14.7093 96.9175 12.1753 100.927 12.4239C104.936 12.6724 108.761 15.7082 108.079 21.3608H108.084ZM96.1631 18.9926H104.776C104.505 16.5074 102.508 15.2696 100.496 15.2696C98.4844 15.2696 96.4678 16.5122 96.1631 18.9926Z" fill="currentColor"></path><path d="M119.376 27.8811L117.432 25.2253L115.488 22.5696L113.529 25.2253L111.571 27.8811H107.658L110.608 23.9973L113.558 20.1136L110.729 16.3517L107.9 12.5898H111.846L113.713 15.0945L115.58 17.5992L117.446 15.0945L119.313 12.5898H123.138L120.295 16.3225L117.451 20.0552L120.415 23.9681L123.38 27.8811H119.376V27.8811Z" fill="currentColor"></path><path d="M130.121 12.4092C128.903 12.4092 127.703 12.57 126.61 12.8819C125.517 13.1937 124.521 13.6664 123.709 14.2901L124.4 15.5961L125.092 16.902C126.335 15.8446 128.521 15.2209 130.349 15.4255C132.177 15.6302 133.647 16.6681 133.463 18.934C131.137 18.8999 128.593 18.7976 126.63 19.319C124.666 19.8404 123.278 20.9953 123.254 23.4853C123.128 25.912 125.126 27.4519 127.461 27.9245C129.797 28.3972 132.472 27.8173 133.7 26.0046V27.8563H137.041V18.9048C137.027 16.7071 136.389 15.0844 135.204 14.0075C134.019 12.9306 132.297 12.4092 130.116 12.4092H130.121ZM133.463 21.8724C133.463 23.115 133.11 24.1188 132.423 24.8059C131.736 25.493 130.721 25.873 129.396 25.873C128.733 25.873 128.056 25.761 127.544 25.4589C127.031 25.1567 126.688 24.6743 126.688 23.9288C126.697 22.6277 127.776 21.9698 129.164 21.6385C130.552 21.3071 132.239 21.3071 133.463 21.3169V21.8626V21.8724Z" fill="currentColor"></path><path d="M17.3998 0.00288589C17.2499 0.00288589 17.0951 0.0223776 16.95 0.056488C16.805 0.0905984 16.6599 0.1442 16.5245 0.212421L8.72891 4.75398L0.93334 9.28579C0.677034 9.43685 0.444908 9.69512 0.27565 9.98749C0.106391 10.2799 0 10.6064 0 10.8939V19.2655C0 19.4604 0.0725394 19.6359 0.198274 19.7626C0.324009 19.8893 0.498104 19.9672 0.691542 19.9623C1.19932 19.9623 1.6539 19.7528 1.98758 19.4166C2.32126 19.0804 2.52437 18.6223 2.52921 18.1106V12.3752C2.54855 12.0487 2.64527 11.732 2.80486 11.4591C2.96444 11.1862 3.1869 10.9475 3.46255 10.7672L9.98142 6.97603L16.5003 3.1849C16.805 3.02897 17.1386 2.95587 17.4675 2.96075C17.7963 2.96562 18.13 3.04846 18.425 3.21414L22.9708 6.12814L27.5166 9.04215C28.1646 9.45147 28.4935 10.007 28.508 10.5674C28.5225 11.1278 28.213 11.6979 27.5795 12.1364C27.1684 12.4727 26.7235 12.7797 26.2496 12.9405C25.7757 13.1013 25.2727 13.1013 24.7504 12.8381C24.7504 12.8381 23.1642 11.9123 21.5732 10.9864C19.9822 10.0606 18.396 9.13473 18.396 9.13473C18.1397 8.98367 17.8012 8.9057 17.4675 8.9057C17.1338 8.9057 16.8001 8.98367 16.5583 9.13473L12.5687 11.4396L8.57899 13.7445C8.32269 13.8956 8.09056 14.1538 7.9213 14.4462C7.75204 14.7386 7.64565 15.0651 7.64565 15.3526V24.3041L5.02456 26.0632L2.40347 27.8224C1.74095 28.2609 1.41694 28.8408 1.42661 29.4061C1.43628 29.9713 1.7748 30.5366 2.43732 30.9459L9.48332 35.3461L16.5293 39.7464C16.7856 39.9121 17.1338 39.9949 17.4772 39.9998C17.8205 40.0047 18.1687 39.9267 18.425 39.7756L26.2206 35.2389L34.0161 30.7023C34.2724 30.5512 34.5046 30.2929 34.6738 30.0006C34.8431 29.7082 34.9495 29.3817 34.9495 29.0942V21.356C34.9495 20.8443 34.7415 20.3863 34.4079 20.0501C34.0742 19.7138 33.6196 19.5092 33.1118 19.5043C32.9184 19.5043 32.7443 19.5774 32.6185 19.7041C32.4928 19.8308 32.4154 20.0062 32.4203 20.2011V27.6031C32.4203 27.8906 32.3139 28.2171 32.1446 28.5094C31.9754 28.8018 31.7432 29.0601 31.4869 29.2111L24.9681 33.0023L18.4492 36.7934C18.1445 36.9493 17.8108 37.0224 17.482 37.0176C17.1531 37.0127 16.8195 36.9298 16.5245 36.7642L12.0512 33.8989L7.57795 31.0336C6.88641 30.5951 6.54789 30.0152 6.55273 29.445C6.55756 28.8749 6.91542 28.3048 7.60696 27.8808L8.0422 27.608L8.47744 27.3351C8.77243 27.1791 9.09644 27.0963 9.42045 27.0914C9.74446 27.0866 10.0733 27.1548 10.3731 27.3058L13.4585 29.0942L16.5438 30.8826C16.8001 31.0336 17.1386 31.1116 17.4723 31.1116C17.806 31.1116 18.1397 31.0336 18.3815 30.8826L21.7086 28.9431L25.0358 27.0037C25.4758 26.7406 25.766 26.3264 25.8869 25.8683C26.0078 25.4103 25.9546 24.9035 25.6983 24.4552C25.6016 24.2846 25.442 24.1725 25.2679 24.1287C25.0938 24.0848 24.9004 24.1092 24.7359 24.2115L21.5587 26.0632L18.3815 27.9149C18.1252 28.066 17.7867 28.144 17.453 28.144C17.1193 28.144 16.7856 28.066 16.5438 27.9149L13.8357 26.3361L11.1275 24.7573C10.8712 24.6062 10.6391 24.348 10.4699 24.0556C10.3006 23.7632 10.1942 23.4367 10.1942 23.1492C10.2861 18.5248 9.90888 16.9558 10.4892 15.9422C11.0695 14.9286 12.6122 14.4754 16.5438 12.0731C16.8001 11.922 17.1386 11.8441 17.4723 11.8441C17.806 11.8441 18.1397 11.922 18.3815 12.0731L21.6941 13.9979L25.0067 15.9227C25.2776 16.0738 25.6306 16.1517 25.9836 16.142C26.3366 16.1322 26.68 16.0445 26.9363 15.8594L29.7218 14.0076L32.5073 12.1559C33.1698 11.7174 33.4939 11.1375 33.4842 10.5722C33.4745 10.007 33.136 9.44173 32.4735 9.0324L25.4275 4.63216L18.396 0.246532C18.2461 0.158819 18.0865 0.0954713 17.9172 0.0516151C17.748 0.00775881 17.5787 -0.00685994 17.4046 0.00288589H17.3998Z" fill="currentColor"></path></svg>